<svg xmlns="http://www.w3.org/2000/svg" width="31" height="20" viewBox="0 0 31 20" fill="none">
<rect x="0.5" y="0.5" width="30" height="19" rx="1.5" fill="white"/>
<path d="M6.96221 6.83338C6.63918 6.61131 6.21764 6.5 5.6976 6.5H3.68429C3.52487 6.5 3.43679 6.57973 3.42006 6.739L2.60218 11.8728C2.59368 11.9233 2.60629 11.9694 2.63991 12.0113C2.67333 12.0533 2.71537 12.0742 2.76571 12.0742H3.72202C3.88975 12.0742 3.98195 11.9947 3.99887 11.8352L4.22533 10.4511C4.2336 10.384 4.2631 10.3295 4.31345 10.2875C4.36375 10.2456 4.42668 10.2181 4.50218 10.2056C4.57768 10.1931 4.64887 10.1868 4.7161 10.1868C4.78314 10.1868 4.86279 10.1911 4.95521 10.1994C5.04741 10.2078 5.10618 10.2119 5.13137 10.2119C5.85275 10.2119 6.41898 10.0086 6.8301 9.60165C7.24102 9.19485 7.44671 8.63073 7.44671 7.90919C7.44671 7.41427 7.2851 7.05565 6.96221 6.83323V6.83338ZM5.92414 8.37492C5.88206 8.66858 5.77314 8.86142 5.59698 8.95373C5.42079 9.04615 5.16914 9.09208 4.84202 9.09208L4.42675 9.10469L4.64071 7.75827C4.65741 7.66608 4.71191 7.61992 4.80425 7.61992H5.04341C5.37879 7.61992 5.62221 7.66827 5.77321 7.76458C5.92414 7.86112 5.97448 8.06465 5.92414 8.37492Z" fill="#003087"/>
<path d="M28.2084 6.5H27.2774C27.1849 6.5 27.1304 6.54615 27.1138 6.63842L26.2958 11.873L26.2832 11.8982C26.2832 11.9403 26.3 11.98 26.3336 12.0178C26.367 12.0554 26.4091 12.0743 26.4594 12.0743H27.29C27.4492 12.0743 27.5373 11.9948 27.5543 11.8353L28.3722 6.68877V6.67627C28.3721 6.55885 28.3174 6.50012 28.2084 6.50012V6.5Z" fill="#009CDE"/>
<path d="M16.9587 8.52576C16.9587 8.48392 16.9418 8.44399 16.9084 8.4063C16.8748 8.36857 16.837 8.34961 16.7952 8.34961H15.8263C15.7338 8.34961 15.6584 8.39176 15.5997 8.47542L14.2659 10.4385L13.7123 8.55099C13.6702 8.41684 13.578 8.34961 13.4355 8.34961H12.4916C12.4496 8.34961 12.4118 8.36853 12.3785 8.4063C12.3448 8.44399 12.3281 8.48396 12.3281 8.52576C12.3281 8.54269 12.4099 8.79003 12.5735 9.26819C12.737 9.74642 12.9132 10.2623 13.102 10.816C13.2907 11.3696 13.3892 11.6634 13.3977 11.6967C12.7097 12.6363 12.3659 13.1397 12.3659 13.2067C12.3659 13.3159 12.4204 13.3703 12.5295 13.3703H13.4984C13.5906 13.3703 13.6661 13.3285 13.7249 13.2445L16.9336 8.61376C16.9503 8.59711 16.9587 8.56788 16.9587 8.52572V8.52576Z" fill="#003087"/>
<path d="M25.982 8.34983H25.0256C24.9081 8.34983 24.837 8.48826 24.8118 8.7651C24.5935 8.42972 24.1952 8.26172 23.6163 8.26172C23.0123 8.26172 22.4984 8.48826 22.0749 8.94126C21.6512 9.3943 21.4395 9.92707 21.4395 10.5394C21.4395 11.0344 21.5841 11.4286 21.8735 11.7221C22.1629 12.0159 22.5508 12.1626 23.0376 12.1626C23.2808 12.1626 23.5282 12.1121 23.7799 12.0116C24.0316 11.9109 24.2285 11.7768 24.3714 11.6089C24.3714 11.6173 24.3628 11.655 24.3462 11.7221C24.3293 11.7893 24.321 11.8398 24.321 11.8731C24.321 12.0074 24.3754 12.0744 24.4846 12.0744H25.353C25.5121 12.0744 25.6045 11.9948 25.6296 11.8353L26.1456 8.5511C26.1538 8.50076 26.1413 8.45468 26.1078 8.41268C26.0741 8.37087 26.0323 8.34983 25.982 8.34983ZM24.3399 10.8288C24.126 11.0385 23.868 11.1433 23.566 11.1433C23.3226 11.1433 23.1257 11.0763 22.9746 10.942C22.8235 10.8081 22.748 10.6235 22.748 10.3883C22.748 10.0782 22.8529 9.81587 23.0627 9.60195C23.2721 9.38803 23.5325 9.28107 23.8428 9.28107C24.0775 9.28107 24.2726 9.3503 24.4279 9.48864C24.583 9.62707 24.6608 9.81799 24.6608 10.0613C24.6608 10.3632 24.5538 10.6191 24.3399 10.8288Z" fill="#009CDE"/>
<path d="M11.6871 8.34983H10.7308C10.6132 8.34983 10.542 8.48826 10.5168 8.7651C10.2903 8.42972 9.89184 8.26172 9.32142 8.26172C8.71742 8.26172 8.20353 8.48826 7.77995 8.94126C7.35626 9.3943 7.14453 9.92707 7.14453 10.5394C7.14453 11.0344 7.28926 11.4286 7.57868 11.7221C7.86811 12.0159 8.25599 12.1626 8.74261 12.1626C8.97738 12.1626 9.2208 12.1121 9.47242 12.0116C9.72407 11.9109 9.92542 11.7768 10.0764 11.6089C10.0428 11.7095 10.0261 11.7976 10.0261 11.8731C10.0261 12.0074 10.0806 12.0744 10.1896 12.0744H11.0579C11.2171 12.0744 11.3095 11.9948 11.3347 11.8353L11.8506 8.5511C11.8589 8.50076 11.8463 8.45468 11.8129 8.41268C11.7793 8.37087 11.7374 8.34983 11.6871 8.34983ZM10.045 10.835C9.83103 11.0408 9.56876 11.1433 9.25857 11.1433C9.01515 11.1433 8.82011 11.0763 8.67342 10.942C8.52653 10.8081 8.45318 10.6235 8.45318 10.3883C8.45318 10.0782 8.55799 9.81587 8.7678 9.60195C8.97738 9.38803 9.23745 9.28107 9.54795 9.28107C9.78272 9.28107 9.97776 9.3503 10.1331 9.48868C10.2882 9.6271 10.3659 9.81803 10.3659 10.0613C10.3659 10.3716 10.2589 10.6297 10.045 10.835Z" fill="#003087"/>
<path d="M21.2572 6.83338C20.9342 6.61131 20.5127 6.5 19.9926 6.5H17.9918C17.824 6.5 17.7316 6.57973 17.715 6.739L16.8971 11.8728C16.8886 11.9233 16.9012 11.9694 16.9348 12.0113C16.9681 12.0533 17.0103 12.0742 17.0606 12.0742H18.0924C18.1931 12.0742 18.2601 12.0198 18.2938 11.9107L18.5203 10.4511C18.5286 10.384 18.558 10.3295 18.6084 10.2875C18.6587 10.2456 18.7216 10.2182 18.7971 10.2056C18.8726 10.1931 18.9438 10.1868 19.0111 10.1868C19.0781 10.1868 19.1578 10.1911 19.2501 10.1994C19.3423 10.2078 19.4013 10.2119 19.4262 10.2119C20.1478 10.2119 20.7139 10.0086 21.125 9.60165C21.5361 9.19485 21.7416 8.63073 21.7416 7.90919C21.7416 7.41431 21.5801 7.05569 21.2572 6.83327V6.83338ZM19.9674 8.90338C19.7828 9.02919 19.506 9.09208 19.1369 9.09208L18.7343 9.10469L18.9482 7.75827C18.9648 7.66608 19.0193 7.61992 19.1117 7.61992H19.3381C19.5227 7.61992 19.6694 7.62831 19.7787 7.64504C19.8876 7.66196 19.9926 7.71423 20.0933 7.80231C20.1939 7.89042 20.2443 8.01838 20.2443 8.18615C20.2443 8.53846 20.1519 8.7775 19.9674 8.90338Z" fill="#009CDE"/>
<rect x="0.5" y="0.5" width="30" height="19" rx="1.5" stroke="#F0F0F0"/>
</svg>