<svg xmlns="http://www.w3.org/2000/svg" width="91" height="24" fill="none"><g clip-path="url(#a)"><path d="M28.948 4.8a.378.378 0 0 0-.374.319l-2.157 13.677a.352.352 0 0 0 .346.404h2.558a.379.379 0 0 0 .373-.32l.634-4.016a.378.378 0 0 1 .374-.319h2.325a5.515 5.515 0 0 0 5.444-4.669c.425-2.708-1.691-5.07-4.69-5.076h-4.833Zm2.486 3.053h1.86c1.532 0 2.03.903 1.873 1.903-.158 1.002-.932 1.74-2.414 1.74h-1.894l.575-3.643Zm12.24.93c-.647.002-1.39.134-2.224.482-1.914.797-2.833 2.446-3.223 3.647 0 0-1.242 3.667 1.564 5.682 0 0 2.603 1.939 5.533-.12l-.05.322a.352.352 0 0 0 .345.404h2.428a.378.378 0 0 0 .373-.32l1.477-9.365a.35.35 0 0 0-.345-.405h-2.428a.378.378 0 0 0-.374.32l-.079.503s-1.06-1.158-2.998-1.15Zm.079 2.958c.278 0 .533.038.762.112 1.048.336 1.642 1.342 1.47 2.433-.212 1.343-1.314 2.332-2.726 2.332a2.49 2.49 0 0 1-.763-.111c-1.047-.337-1.645-1.343-1.473-2.434.212-1.343 1.317-2.332 2.73-2.332Z" fill="#003087"/><path d="M63.911 4.8a.378.378 0 0 0-.374.319l-2.156 13.677a.35.35 0 0 0 .346.404h2.557a.379.379 0 0 0 .374-.32l.633-4.016a.378.378 0 0 1 .374-.319h2.325a5.514 5.514 0 0 0 5.444-4.669c.425-2.708-1.69-5.07-4.69-5.076H63.91Zm2.486 3.053h1.86c1.532 0 2.031.903 1.873 1.903-.157 1.002-.932 1.74-2.414 1.74h-1.893l.574-3.643Zm12.24.93c-.647.002-1.39.134-2.224.482-1.913.797-2.832 2.446-3.223 3.647 0 0-1.241 3.667 1.565 5.682 0 0 2.602 1.939 5.532-.12l-.05.322a.352.352 0 0 0 .346.404h2.427a.378.378 0 0 0 .374-.32l1.478-9.365a.35.35 0 0 0-.346-.405h-2.428a.378.378 0 0 0-.374.32l-.08.503s-1.06-1.158-2.998-1.15Zm.079 2.958c.279 0 .534.038.762.112 1.048.336 1.642 1.342 1.47 2.433-.212 1.343-1.314 2.332-2.726 2.332a2.49 2.49 0 0 1-.763-.111c-1.047-.337-1.645-1.343-1.473-2.434.212-1.343 1.317-2.332 2.73-2.332Z" fill="#0070E0"/><path d="M51.05 9.11a.284.284 0 0 0-.271.37l2.662 8.26-2.407 3.893a.284.284 0 0 0 .241.433h2.845a.473.473 0 0 0 .404-.228L61.958 9.54a.284.284 0 0 0-.243-.43h-2.844a.473.473 0 0 0-.407.232l-2.926 4.94-1.486-4.903a.379.379 0 0 0-.362-.27h-2.64Z" fill="#003087"/><path d="M87.62 4.8a.379.379 0 0 0-.374.319L85.09 18.795a.35.35 0 0 0 .346.405h2.558a.378.378 0 0 0 .373-.32l2.157-13.676a.35.35 0 0 0-.345-.404H87.62Z" fill="#0070E0"/><path d="M7.626 4.8a.692.692 0 0 0-.684.584l-1.135 7.2A.692.692 0 0 1 6.49 12h3.327a6.794 6.794 0 0 0 6.708-5.752c.039-.248.06-.497.066-.747a6.315 6.315 0 0 0-2.946-.701h-6.02Z" fill="#001C64"/><path d="M16.59 5.501c-.005.25-.026.5-.065.747A6.795 6.795 0 0 1 9.817 12H6.49c-.34 0-.63.248-.683.584L4.763 19.2l-.653 4.151a.562.562 0 0 0 .554.65h3.61a.692.692 0 0 0 .684-.585l.951-6.032a.692.692 0 0 1 .684-.584h2.126a6.794 6.794 0 0 0 6.708-5.752c.369-2.349-.815-4.487-2.837-5.547Z" fill="#0070E0"/><path d="M3.523 0c-.34 0-.63.248-.683.584L.007 18.55c-.054.341.21.65.555.65h4.202l1.043-6.617 1.135-7.2a.692.692 0 0 1 .683-.584h6.02c1.095 0 2.095.256 2.945.701.059-3.013-2.428-5.5-5.846-5.5h-7.22Z" fill="#003087"/></g><defs><clipPath id="a"><path fill="#fff" d="M0 0h90.527v24H0z"/></clipPath></defs></svg>